<mxfile host="app.diagrams.net" modified="2021-06-28T08:41:45.632Z" agent="5.0 (Windows NT 10.0; Win64; x64) AppleWebKit/537.36 (KHTML, like Gecko) Chrome/91.0.4472.114 Safari/537.36" etag="v4oP-0z_daBZq_i399an" version="14.8.0" type="github">
  <diagram id="qDgWSSQOqP8-Fc7wM_Mz" name="ページ1">
    <mxGraphModel dx="1422" dy="794" grid="1" gridSize="10" guides="1" tooltips="1" connect="1" arrows="1" fold="1" page="1" pageScale="1" pageWidth="827" pageHeight="1169" math="0" shadow="0">
      <root>
        <mxCell id="0" />
        <mxCell id="1" parent="0" />
        <mxCell id="eZPMayMjSuH5GK2ANjF6-3" value="" style="edgeStyle=orthogonalEdgeStyle;rounded=0;orthogonalLoop=1;jettySize=auto;html=1;" edge="1" parent="1" source="eZPMayMjSuH5GK2ANjF6-1" target="eZPMayMjSuH5GK2ANjF6-2">
          <mxGeometry relative="1" as="geometry">
            <Array as="points">
              <mxPoint x="260" y="180" />
              <mxPoint x="100" y="180" />
            </Array>
          </mxGeometry>
        </mxCell>
        <mxCell id="eZPMayMjSuH5GK2ANjF6-9" value="" style="edgeStyle=orthogonalEdgeStyle;rounded=0;orthogonalLoop=1;jettySize=auto;html=1;exitX=0.5;exitY=1;exitDx=0;exitDy=0;" edge="1" parent="1" source="eZPMayMjSuH5GK2ANjF6-1" target="eZPMayMjSuH5GK2ANjF6-8">
          <mxGeometry relative="1" as="geometry" />
        </mxCell>
        <mxCell id="eZPMayMjSuH5GK2ANjF6-1" value="docker engine" style="rounded=0;whiteSpace=wrap;html=1;" vertex="1" parent="1">
          <mxGeometry x="200" y="80" width="120" height="60" as="geometry" />
        </mxCell>
        <mxCell id="eZPMayMjSuH5GK2ANjF6-2" value="prometheus" style="rounded=0;whiteSpace=wrap;html=1;" vertex="1" parent="1">
          <mxGeometry x="40" y="220" width="120" height="60" as="geometry" />
        </mxCell>
        <mxCell id="eZPMayMjSuH5GK2ANjF6-4" value="grafana" style="rounded=0;whiteSpace=wrap;html=1;" vertex="1" parent="1">
          <mxGeometry x="200" y="220" width="120" height="60" as="geometry" />
        </mxCell>
        <mxCell id="eZPMayMjSuH5GK2ANjF6-6" value="" style="endArrow=classic;html=1;exitX=0.5;exitY=1;exitDx=0;exitDy=0;entryX=0.5;entryY=0;entryDx=0;entryDy=0;" edge="1" parent="1" source="eZPMayMjSuH5GK2ANjF6-1" target="eZPMayMjSuH5GK2ANjF6-4">
          <mxGeometry width="50" height="50" relative="1" as="geometry">
            <mxPoint x="390" y="430" as="sourcePoint" />
            <mxPoint x="440" y="380" as="targetPoint" />
          </mxGeometry>
        </mxCell>
        <mxCell id="eZPMayMjSuH5GK2ANjF6-8" value="wordpress_1" style="rounded=0;whiteSpace=wrap;html=1;" vertex="1" parent="1">
          <mxGeometry x="360" y="220" width="120" height="60" as="geometry" />
        </mxCell>
        <mxCell id="eZPMayMjSuH5GK2ANjF6-10" value="80, 9100" style="text;html=1;strokeColor=none;fillColor=none;align=center;verticalAlign=middle;whiteSpace=wrap;rounded=0;" vertex="1" parent="1">
          <mxGeometry x="420" y="200" width="70" height="20" as="geometry" />
        </mxCell>
        <mxCell id="eZPMayMjSuH5GK2ANjF6-11" value="3000" style="text;html=1;strokeColor=none;fillColor=none;align=center;verticalAlign=middle;whiteSpace=wrap;rounded=0;" vertex="1" parent="1">
          <mxGeometry x="260" y="200" width="40" height="20" as="geometry" />
        </mxCell>
        <mxCell id="eZPMayMjSuH5GK2ANjF6-12" value="9090" style="text;html=1;strokeColor=none;fillColor=none;align=center;verticalAlign=middle;whiteSpace=wrap;rounded=0;" vertex="1" parent="1">
          <mxGeometry x="100" y="200" width="40" height="20" as="geometry" />
        </mxCell>
        <mxCell id="eZPMayMjSuH5GK2ANjF6-13" value="" style="endArrow=classic;html=1;entryX=0.5;entryY=0;entryDx=0;entryDy=0;" edge="1" parent="1">
          <mxGeometry width="50" height="50" relative="1" as="geometry">
            <mxPoint x="259" y="30" as="sourcePoint" />
            <mxPoint x="259" y="80" as="targetPoint" />
          </mxGeometry>
        </mxCell>
        <mxCell id="eZPMayMjSuH5GK2ANjF6-14" value="9090, 3000, 8080, 9100" style="text;html=1;align=center;verticalAlign=middle;resizable=0;points=[];autosize=1;strokeColor=none;" vertex="1" parent="1">
          <mxGeometry x="260" y="60" width="140" height="20" as="geometry" />
        </mxCell>
      </root>
    </mxGraphModel>
  </diagram>
</mxfile>
